<?xml version="1.0" encoding="UTF-8" standalone="no"?>
<!DOCTYPE svg PUBLIC "-//W3C//DTD SVG 1.1//EN" "http://www.w3.org/Graphics/SVG/1.1/DTD/svg11.dtd">
<svg width="100%" height="100%" viewBox="0 0 96 96" version="1.1" xmlns="http://www.w3.org/2000/svg" xmlns:xlink="http://www.w3.org/1999/xlink" xml:space="preserve" xmlns:serif="http://www.serif.com/" style="fill-rule:evenodd;clip-rule:evenodd;stroke-linejoin:round;stroke-miterlimit:2;">
    <g id="Artboard1" transform="matrix(0.12,0,0,0.12,0,0)">
        <rect x="0" y="0" width="800" height="800" style="fill:none;"/>
        <g transform="matrix(2.85908,0,0,0.722293,-321.234,-94.5391)">
            <path d="M126.929,511.012L158.991,511.012L158.991,1076.95L142.96,1076.95C134.095,1076.95 126.929,1048.04 126.929,1012.58L126.929,511.012ZM126.929,421.142L126.929,356.776C126.929,321.318 134.095,292.41 142.96,292.41L158.991,292.41L158.991,421.142L126.929,421.142ZM181.58,1076.95L181.58,948.216L377.593,948.216L377.593,1012.58C377.593,1048.04 370.427,1076.95 361.562,1076.95L181.58,1076.95ZM377.593,858.346L181.58,858.346L181.58,729.614L377.593,729.614L377.593,858.346ZM377.593,639.744L181.58,639.744L181.58,511.012L377.593,511.012L377.593,639.744ZM377.593,421.142L181.58,421.142L181.58,292.41L361.562,292.41C370.427,292.41 377.593,321.318 377.593,356.776L377.593,421.142Z"/>
        </g>
    </g>
</svg>
