<?xml version="1.0" encoding="UTF-8" standalone="no"?>
<!DOCTYPE svg PUBLIC "-//W3C//DTD SVG 1.1//EN" "http://www.w3.org/Graphics/SVG/1.1/DTD/svg11.dtd">
<svg width="100%" height="100%" viewBox="0 0 96 96" version="1.1" xmlns="http://www.w3.org/2000/svg" xmlns:xlink="http://www.w3.org/1999/xlink" xml:space="preserve" xmlns:serif="http://www.serif.com/" style="fill-rule:evenodd;clip-rule:evenodd;stroke-linejoin:round;stroke-miterlimit:2;">
    <g transform="matrix(0.938604,0,0,1.01314,2.24753,-1.93342)">
        <path d="M54.004,88.746L51.941,88.746C51.778,88.746 51.617,88.734 51.46,88.712L23.941,88.712C18.764,88.712 14.561,84.818 14.561,80.022L14.561,18.408C14.561,13.611 18.764,9.717 23.941,9.717L73.418,9.717C78.595,9.717 82.798,13.611 82.798,18.408L82.798,51.648C81.445,51.459 80.059,51.361 78.649,51.361C77.894,51.361 77.146,51.389 76.406,51.444L76.406,18.408C76.406,16.88 75.067,15.639 73.418,15.639L23.941,15.639C22.292,15.639 20.953,16.88 20.953,18.408L20.953,72.934L51.299,72.934C51.068,74.266 50.948,75.632 50.948,77.024C50.948,77.64 50.972,78.251 51.018,78.856L20.953,78.856L20.953,80.022C20.953,81.55 22.292,82.79 23.941,82.79L51.651,82.79C52.171,84.884 52.968,86.881 54.004,88.746ZM34.829,35.442C33.065,35.442 31.633,34.115 31.633,32.481C31.633,30.847 33.065,29.52 34.829,29.52L62.53,29.52C64.294,29.52 65.726,30.847 65.726,32.481C65.726,34.115 64.294,35.442 62.53,35.442L34.829,35.442ZM78.649,57.283C90.409,57.283 99.957,66.129 99.957,77.024C99.957,87.919 90.409,96.765 78.649,96.765C66.889,96.765 57.341,87.919 57.341,77.024C57.341,66.129 66.889,57.283 78.649,57.283ZM78.649,63.206C70.417,63.206 63.733,69.398 63.733,77.024C63.733,84.651 70.417,90.843 78.649,90.843C86.881,90.843 93.565,84.651 93.565,77.024C93.565,69.398 86.881,63.206 78.649,63.206ZM75.453,79.985L70.126,79.985C68.362,79.985 66.929,78.658 66.929,77.024C66.929,75.39 68.362,74.063 70.126,74.063L75.453,74.063L75.453,69.128C75.453,67.494 76.885,66.167 78.649,66.167C80.413,66.167 81.845,67.494 81.845,69.128L81.845,74.063L87.172,74.063C88.936,74.063 90.368,75.39 90.368,77.024C90.368,78.658 88.936,79.985 87.172,79.985L81.845,79.985L81.845,84.92C81.845,86.555 80.413,87.882 78.649,87.882C76.885,87.882 75.453,86.555 75.453,84.92L75.453,79.985Z"/>
    </g>
</svg>
