<?xml version="1.0" encoding="UTF-8" standalone="no"?>
<!DOCTYPE svg PUBLIC "-//W3C//DTD SVG 1.1//EN" "http://www.w3.org/Graphics/SVG/1.1/DTD/svg11.dtd">
<svg width="100%" height="100%" viewBox="0 0 96 96" version="1.1" xmlns="http://www.w3.org/2000/svg" xmlns:xlink="http://www.w3.org/1999/xlink" xml:space="preserve" xmlns:serif="http://www.serif.com/" style="fill-rule:evenodd;clip-rule:evenodd;stroke-linejoin:round;stroke-miterlimit:2;">
    <g transform="matrix(0.938604,0,0,1.01314,2.24753,-1.93342)">
        <path d="M14.561,80.022L14.561,18.408C14.561,13.611 18.764,9.717 23.941,9.717L73.418,9.717C78.595,9.717 82.798,13.611 82.798,18.408L82.798,75.895C82.798,77.53 81.367,78.856 79.602,78.856L20.953,78.856L20.953,80.022C20.953,81.55 22.292,82.79 23.941,82.79L62.366,82.79C62.469,82.812 62.574,82.823 62.68,82.823L79.642,82.823C81.406,82.823 82.838,84.15 82.838,85.784C82.838,87.419 81.406,88.746 79.642,88.746L51.941,88.746C51.778,88.746 51.617,88.734 51.46,88.712L23.941,88.712C18.764,88.712 14.561,84.818 14.561,80.022ZM76.406,72.934L76.406,18.408C76.406,16.88 75.067,15.639 73.418,15.639L23.941,15.639C22.292,15.639 20.953,16.88 20.953,18.408L20.953,72.934L76.406,72.934ZM34.829,35.442C33.065,35.442 31.633,34.115 31.633,32.481C31.633,30.847 33.065,29.52 34.829,29.52L62.53,29.52C64.294,29.52 65.726,30.847 65.726,32.481C65.726,34.115 64.294,35.442 62.53,35.442L34.829,35.442Z"/>
    </g>
</svg>
