<?xml version="1.0" encoding="UTF-8" standalone="no"?>
<!DOCTYPE svg PUBLIC "-//W3C//DTD SVG 1.1//EN" "http://www.w3.org/Graphics/SVG/1.1/DTD/svg11.dtd">
<svg width="100%" height="100%" viewBox="0 0 96 96" version="1.1" xmlns="http://www.w3.org/2000/svg" xmlns:xlink="http://www.w3.org/1999/xlink" xml:space="preserve" xmlns:serif="http://www.serif.com/" style="fill-rule:evenodd;clip-rule:evenodd;stroke-linejoin:round;stroke-miterlimit:2;">
    <path d="M83.994,26.169L83.994,72.655C83.994,79.692 78.28,85.406 71.243,85.406L24.757,85.406C17.72,85.406 12.006,79.692 12.006,72.655L12.006,26.169C12.006,19.132 17.72,13.418 24.757,13.418L71.243,13.418C78.28,13.418 83.994,19.132 83.994,26.169ZM77.994,27.454L77.994,26.169C77.994,22.443 74.969,19.418 71.243,19.418L24.757,19.418C21.031,19.418 18.006,22.443 18.006,26.169L18.006,27.454L77.994,27.454ZM18.006,33.454L18.006,72.655C18.006,76.381 21.031,79.406 24.757,79.406L71.243,79.406C74.969,79.406 77.994,76.381 77.994,72.655L77.994,33.454L18.006,33.454ZM31,42.93C33.76,42.93 36,45.17 36,47.93C36,50.689 33.76,52.93 31,52.93C28.24,52.93 26,50.689 26,47.93C26,45.17 28.24,42.93 31,42.93ZM65,42.93C67.76,42.93 70,45.17 70,47.93C70,50.689 67.76,52.93 65,52.93C62.24,52.93 60,50.689 60,47.93C60,45.17 62.24,42.93 65,42.93ZM31,59.93C33.76,59.93 36,62.17 36,64.93C36,67.689 33.76,69.93 31,69.93C28.24,69.93 26,67.689 26,64.93C26,62.17 28.24,59.93 31,59.93ZM48,42.93C50.76,42.93 53,45.17 53,47.93C53,50.689 50.76,52.93 48,52.93C45.24,52.93 43,50.689 43,47.93C43,45.17 45.24,42.93 48,42.93ZM48,59.93C50.76,59.93 53,62.17 53,64.93C53,67.689 50.76,69.93 48,69.93C45.24,69.93 43,67.689 43,64.93C43,62.17 45.24,59.93 48,59.93Z"/>
</svg>
