<?xml version="1.0" encoding="UTF-8" standalone="no"?>
<!DOCTYPE svg PUBLIC "-//W3C//DTD SVG 1.1//EN" "http://www.w3.org/Graphics/SVG/1.1/DTD/svg11.dtd">
<svg width="100%" height="100%" viewBox="0 0 96 96" version="1.1" xmlns="http://www.w3.org/2000/svg" xmlns:xlink="http://www.w3.org/1999/xlink" xml:space="preserve" xmlns:serif="http://www.serif.com/" style="fill-rule:evenodd;clip-rule:evenodd;stroke-linejoin:round;stroke-miterlimit:2;">
    <g transform="matrix(0.158227,0,0,0.158227,7.49391,7.49391)">
        <path d="M-3.122,256C-3.122,113.85 113.85,-3.122 256,-3.122C398.15,-3.122 515.122,113.85 515.122,256C515.122,398.15 398.15,515.122 256,515.122C113.85,515.122 -3.122,398.15 -3.122,256ZM410.436,206.9C410.433,206.906 410.43,206.912 410.427,206.918L411.3,208.322L410.436,206.9ZM411,208.922L413.792,207.196C406.299,222.184 393.408,233.487 378.213,239.098L389.708,250.592C398.292,259.177 403.122,270.874 403.122,283C403.122,303.106 390.043,320.736 371.122,326.746L371.122,330.6C371.122,348.577 365.3,366.139 354.497,380.474L328.902,414.567C319.21,427.561 304.084,435.122 288,435.122C259.776,435.122 236.878,412.224 236.878,384C236.878,384 236.878,339.122 236.878,339.122L208,339.122C170.978,339.122 140.878,309.022 140.878,272L140.878,244C140.878,225.42 149.641,207.893 164.526,196.703L203.927,167.202C212.869,160.496 223.622,156.878 234.8,156.878C240.342,156.878 245.776,157.733 251.09,159.539L283.074,170.234C286.819,171.452 290.911,171.629 294.743,170.671L329.041,162.072L329.062,162.066C331.371,161.505 332.978,159.371 332.978,157C332.978,155.264 332.121,153.645 330.695,152.715L330.675,152.702C330.675,152.702 306.298,136.543 306.299,136.543C298.365,143.341 288.266,147.122 277.8,147.122C271.024,147.122 264.354,145.514 258.224,142.502L258.204,142.492C258.204,142.492 247.431,137.106 247.431,137.105C220.791,173.525 159.888,149.576 168.428,102.345L168.432,102.323L171.932,83.723C171.934,83.711 171.936,83.699 171.939,83.688C172.237,82.194 172.064,80.628 171.62,79.134C171.62,79.134 163.727,55.367 163.728,55.367C87.804,90.272 35.122,166.994 35.122,256C35.122,377.976 134.024,476.878 256,476.878C377.976,476.878 476.878,377.976 476.878,256C476.878,240.104 475.245,224.662 472.063,209.759L426.757,198.432C423.729,197.695 420.549,198.566 418.408,200.708C416.643,202.472 415.232,204.412 414.084,206.613L413.799,207.182L411,208.922ZM381.717,192.598L379.808,189.504C382.761,183.596 386.563,178.219 391.309,173.576C402.982,161.914 420.002,157.209 435.952,161.17L435.962,161.173L458.132,166.754C423.827,89.198 346.25,35.122 256,35.122C236.538,35.122 217.604,37.672 199.613,42.356L207.858,67C210.426,74.597 210.966,82.622 209.575,90.54L209.572,90.558L206.172,109.258L206.169,109.272C204.914,116.01 214.107,119.286 217.477,113.274C225.689,98.424 244.203,92.767 259.392,100.306L275.396,108.308C276.155,108.687 276.978,108.878 277.8,108.878C279.266,108.878 280.672,108.313 281.692,107.292L285.192,103.792C294.75,94.235 309.593,92.773 320.832,100.302L351.734,120.904C363.8,128.984 371.122,142.564 371.122,157C371.122,176.932 357.546,194.28 338.26,199.128L303.964,207.727C293.085,210.473 281.572,210.05 270.91,206.461L238.91,195.761C238.894,195.755 238.877,195.75 238.861,195.744C237.508,195.266 236.153,195.122 234.8,195.122C231.991,195.122 229.176,195.989 226.929,197.755C226.91,197.77 226.891,197.785 226.871,197.799L187.473,227.298C182.254,231.212 179.122,237.389 179.122,244L179.122,272C179.122,287.973 192.027,300.878 208,300.878L240,300.878C259.427,300.878 275.122,316.573 275.122,336L275.122,384C275.122,391.083 280.917,396.878 288,396.878C292.024,396.878 295.888,394.946 298.303,391.726L323.9,357.63C329.697,349.869 332.878,340.425 332.878,330.7L332.878,318.6C332.878,305.967 341.458,294.914 353.753,291.869L359.045,290.571C362.459,289.716 364.878,286.657 364.878,283.1C364.878,281.065 364.121,279.164 362.647,277.761C362.629,277.743 362.61,277.726 362.592,277.708L322.392,237.508C316.898,232.013 315.341,223.771 318.208,216.724C321.078,209.669 328.128,204.878 335.9,204.878L355.6,204.878C365.722,204.878 374.946,199.139 379.514,190.091L379.799,189.521L381.717,192.598Z"/>
    </g>
</svg>
