<?xml version="1.0" encoding="UTF-8" standalone="no"?>
<!DOCTYPE svg PUBLIC "-//W3C//DTD SVG 1.1//EN" "http://www.w3.org/Graphics/SVG/1.1/DTD/svg11.dtd">
<svg width="100%" height="100%" viewBox="0 0 96 96" version="1.1" xmlns="http://www.w3.org/2000/svg" xmlns:xlink="http://www.w3.org/1999/xlink" xml:space="preserve" xmlns:serif="http://www.serif.com/" style="fill-rule:evenodd;clip-rule:evenodd;stroke-linejoin:round;stroke-miterlimit:2;">
    <g transform="matrix(1.71668,0,0,0.999997,-17.1258,11.7316)">
        <path d="M16.384,20.769C15.419,20.769 14.636,19.424 14.636,17.769C14.636,16.113 15.419,14.769 16.384,14.769L59.49,14.769C60.455,14.769 61.238,16.113 61.238,17.769C61.238,19.424 60.455,20.769 59.49,20.769L16.384,20.769ZM16.384,39.269C15.419,39.269 14.636,37.924 14.636,36.269C14.636,34.613 15.419,33.269 16.384,33.269L59.49,33.269C60.455,33.269 61.238,34.613 61.238,36.269C61.238,37.924 60.455,39.269 59.49,39.269L16.384,39.269ZM16.384,57.769C15.419,57.769 14.636,56.424 14.636,54.769C14.636,53.113 15.419,51.769 16.384,51.769L59.49,51.769C60.455,51.769 61.238,53.113 61.238,54.769C61.238,56.424 60.455,57.769 59.49,57.769L16.384,57.769Z"/>
    </g>
</svg>
