<?xml version="1.0" encoding="UTF-8" standalone="no"?>
<!DOCTYPE svg PUBLIC "-//W3C//DTD SVG 1.1//EN" "http://www.w3.org/Graphics/SVG/1.1/DTD/svg11.dtd">
<svg width="100%" height="100%" viewBox="0 0 96 96" version="1.1" xmlns="http://www.w3.org/2000/svg" xmlns:xlink="http://www.w3.org/1999/xlink" xml:space="preserve" xmlns:serif="http://www.serif.com/" style="fill-rule:evenodd;clip-rule:evenodd;stroke-linejoin:round;stroke-miterlimit:2;">
    <path d="M50.069,76.399C39.625,79.438 24.559,83.071 24.559,83.071C24.329,83.127 24.094,83.155 23.858,83.155C20.819,83.155 18.066,81.92 16.075,79.925L16.07,79.921C14.085,77.93 12.858,75.185 12.858,72.155C12.858,71.919 12.885,71.683 12.941,71.454C12.941,71.454 19.376,44.748 22.281,37.783C24.026,33.6 27.713,29.914 31.895,28.169C35.021,26.864 42.091,24.844 48.975,23.018L63.981,8.012C65.153,6.841 67.052,6.841 68.224,8.012L87.988,27.776C89.159,28.948 89.159,30.847 87.988,32.019L78.118,41.888L72.965,47.041C72.667,48.165 72.364,49.294 72.06,50.41C69.676,50.78 67.398,51.474 65.274,52.446C65.969,49.985 66.685,47.331 67.371,44.728C67.506,44.215 67.775,43.746 68.15,43.371L71.754,39.767L56.233,24.246L52.646,27.833C52.27,28.208 51.802,28.477 51.289,28.613C44.478,30.408 37.307,32.412 34.206,33.706C31.428,34.866 28.978,37.314 27.819,40.093C25.196,46.38 19.651,69.219 18.868,72.473C18.876,72.6 18.888,72.727 18.906,72.851L40.704,51.054L40.693,51.018L40.594,49.986L40.693,48.954L40.991,47.948L41.489,47.001L42.181,46.153L43.03,45.461L43.977,44.963L44.982,44.665L46.014,44.566L47.046,44.665L48.052,44.963L48.999,45.461L49.847,46.153L50.539,47.001L51.037,47.948L51.335,48.954L51.434,49.986L51.335,51.018L51.037,52.023L50.539,52.97L49.847,53.819L48.999,54.511L48.052,55.009L47.046,55.307L46.014,55.406L44.982,55.307L44.946,55.296L23.14,77.103C23.272,77.122 23.407,77.136 23.542,77.145C26.177,76.509 41.684,72.742 50.803,69.942C50.322,71.917 50.068,73.98 50.068,76.103C50.068,76.202 50.068,76.3 50.069,76.399ZM75.997,35.524L81.624,29.897L66.103,14.376L60.476,20.003L75.997,35.524ZM76.068,56.103C87.106,56.103 96.068,65.064 96.068,76.103C96.068,87.141 87.106,96.103 76.068,96.103C65.029,96.103 56.068,87.141 56.068,76.103C56.068,65.064 65.029,56.103 76.068,56.103ZM76.068,62.103C68.341,62.103 62.068,68.376 62.068,76.103C62.068,83.829 68.341,90.103 76.068,90.103C83.794,90.103 90.068,83.829 90.068,76.103C90.068,68.376 83.794,62.103 76.068,62.103ZM73.068,79.103L68.068,79.103C66.412,79.103 65.068,77.758 65.068,76.103C65.068,74.447 66.412,73.103 68.068,73.103L73.068,73.103L73.068,68.103C73.068,66.447 74.412,65.103 76.068,65.103C77.723,65.103 79.068,66.447 79.068,68.103L79.068,73.103L84.068,73.103C85.723,73.103 87.068,74.447 87.068,76.103C87.068,77.758 85.723,79.103 84.068,79.103L79.068,79.103L79.068,84.103C79.068,85.758 77.723,87.103 76.068,87.103C74.412,87.103 73.068,85.758 73.068,84.103L73.068,79.103Z"/>
</svg>
