<?xml version="1.0" encoding="UTF-8" standalone="no"?>
<!DOCTYPE svg PUBLIC "-//W3C//DTD SVG 1.1//EN" "http://www.w3.org/Graphics/SVG/1.1/DTD/svg11.dtd">
<svg width="100%" height="100%" viewBox="0 0 96 96" version="1.1" xmlns="http://www.w3.org/2000/svg" xmlns:xlink="http://www.w3.org/1999/xlink" xml:space="preserve" xmlns:serif="http://www.serif.com/" style="fill-rule:evenodd;clip-rule:evenodd;stroke-linejoin:round;stroke-miterlimit:2;">
    <g transform="matrix(1,0,0,0.930212,0,4.14843)">
        <path d="M48,4.141C70.077,4.141 88,23.409 88,47.141C88,70.874 70.077,90.142 48,90.142C25.923,90.142 8,70.874 8,47.141C8,23.409 25.923,4.141 48,4.141ZM48,10.591C29.235,10.591 14,26.969 14,47.141C14,67.314 29.235,83.692 48,83.692C66.765,83.692 82,67.314 82,47.141C82,26.969 66.765,10.591 48,10.591ZM45,50.367L32,50.367C30.344,50.367 29,48.921 29,47.141C29,45.362 30.344,43.916 32,43.916L45,43.916L45,29.941C45,28.161 46.344,26.716 48,26.716C49.656,26.716 51,28.161 51,29.941L51,43.916L64,43.916C65.656,43.916 67,45.362 67,47.141C67,48.921 65.656,50.367 64,50.367L51,50.367L51,64.342C51,66.122 49.656,67.567 48,67.567C46.344,67.567 45,66.122 45,64.342L45,50.367Z"/>
    </g>
</svg>
