<?xml version="1.0" encoding="UTF-8" standalone="no"?>
<!DOCTYPE svg PUBLIC "-//W3C//DTD SVG 1.1//EN" "http://www.w3.org/Graphics/SVG/1.1/DTD/svg11.dtd">
<svg width="100%" height="100%" viewBox="0 0 96 96" version="1.1" xmlns="http://www.w3.org/2000/svg" xmlns:xlink="http://www.w3.org/1999/xlink" xml:space="preserve" xmlns:serif="http://www.serif.com/" style="fill-rule:evenodd;clip-rule:evenodd;stroke-linejoin:round;stroke-miterlimit:2;">
    <g transform="matrix(1.12126,0,0,1.1298,-2.09011,-4.20753)">
        <path d="M51.997,85.935C50.283,86.102 48.503,86.171 46.725,86.144C39.46,86.033 32.304,84.156 29.352,81.227C26.401,78.298 24.51,71.197 24.398,63.986C24.394,63.757 24.393,63.529 24.392,63.3C23.747,62.941 23.107,62.564 22.476,62.171C18.94,59.969 15.689,57.313 13.456,54.672C11.748,52.651 10.624,50.6 10.224,48.732L6.229,30.077C4.5,22.007 9.699,14.062 17.831,12.347L37.185,8.264C45.317,6.549 53.322,11.708 55.05,19.778L57.04,29.067C59.581,29.706 61.986,31.012 63.973,32.983L77.964,46.869C79.185,48.081 80.153,49.45 80.867,50.911C78.103,49.4 74.995,48.433 71.692,48.154L60.189,36.738C56.399,32.977 50.245,32.977 46.454,36.738L32.866,50.224C32.023,51.061 31.422,52.384 30.941,53.947C30.068,56.778 29.693,60.347 29.749,63.903C29.804,67.47 30.294,71.029 31.214,73.825C31.723,75.372 32.328,76.67 33.136,77.472C33.944,78.274 35.252,78.874 36.812,79.38C39.629,80.293 43.214,80.779 46.808,80.834C47.438,80.844 48.067,80.84 48.693,80.823C49.567,82.675 50.682,84.392 51.997,85.935ZM51.494,28.717L49.816,20.883C48.702,15.679 43.54,12.353 38.298,13.459L18.943,17.542C13.7,18.648 10.348,23.77 11.463,28.973L15.458,47.628C15.706,48.786 16.497,50.006 17.556,51.259C19.357,53.39 21.95,55.511 24.775,57.328C25.013,55.561 25.362,53.889 25.823,52.394C26.601,49.872 27.722,47.819 29.082,46.469L32.694,42.884C30.032,43.617 27.456,44.93 24.971,46.857C23.807,47.759 22.124,47.554 21.215,46.399C20.306,45.244 20.513,43.574 21.676,42.672C27.038,38.514 32.743,36.654 38.757,36.867L42.671,32.983C45.145,30.528 48.268,29.106 51.494,28.717ZM15.132,31.606C14.128,30.531 14.193,28.85 15.276,27.854C16.359,26.858 18.053,26.922 19.057,27.997C19.171,28.119 19.37,28.115 19.564,28.145C20.09,28.226 20.681,28.178 21.252,28.052C21.837,27.923 22.406,27.71 22.863,27.414C23.047,27.295 23.246,27.207 23.309,27.04C23.821,25.665 25.362,24.962 26.747,25.471C28.131,25.98 28.84,27.509 28.327,28.883C27.589,30.862 25.188,32.624 22.415,33.236C19.602,33.857 16.661,33.244 15.132,31.606ZM34.325,27.558C33.321,26.483 33.386,24.801 34.469,23.805C35.552,22.809 37.246,22.873 38.25,23.948C38.365,24.071 38.564,24.067 38.757,24.096C39.284,24.178 39.874,24.13 40.446,24.003C41.031,23.874 41.599,23.661 42.057,23.365C42.24,23.246 42.44,23.158 42.502,22.991C43.015,21.616 44.555,20.914 45.94,21.422C47.325,21.931 48.033,23.46 47.52,24.834C46.782,26.813 44.381,28.575 41.608,29.187C38.796,29.808 35.854,29.195 34.325,27.558ZM46.531,71.883L45.859,71.883C43.906,71.883 42.137,71.098 40.854,69.829L40.872,69.811L40.846,69.821C39.567,68.547 38.776,66.791 38.776,64.854L38.776,58.821C38.776,54.937 41.012,54.424 42.608,55.019C44.19,55.608 45.04,59.057 48.267,62.305C47.139,65.01 46.517,67.976 46.517,71.084C46.517,71.351 46.522,71.618 46.531,71.883ZM48.193,45.726C46.761,46.085 45.305,45.223 44.943,43.802C44.581,42.381 45.45,40.936 46.882,40.577C49.063,40.03 51.866,41.106 53.884,43.147C55.874,45.159 56.921,47.935 56.454,49.993C56.129,51.423 54.697,52.322 53.256,52C51.815,51.678 50.909,50.256 51.233,48.827C51.273,48.652 51.154,48.471 51.065,48.272C50.844,47.777 50.484,47.29 50.065,46.866C49.654,46.451 49.185,46.092 48.7,45.875C48.521,45.796 48.356,45.685 48.193,45.726ZM69.705,53.381C79.55,53.381 87.543,61.313 87.543,71.084C87.543,80.854 79.55,88.786 69.705,88.786C59.861,88.786 51.868,80.854 51.868,71.084C51.868,61.313 59.861,53.381 69.705,53.381ZM69.705,58.692C62.814,58.692 57.219,64.245 57.219,71.084C57.219,77.923 62.814,83.475 69.705,83.475C76.597,83.475 82.191,77.923 82.191,71.084C82.191,64.245 76.597,58.692 69.705,58.692ZM67.03,73.739L62.571,73.739C61.094,73.739 59.895,72.549 59.895,71.084C59.895,69.618 61.094,68.428 62.571,68.428L67.03,68.428L67.03,64.003C67.03,62.537 68.229,61.347 69.705,61.347C71.182,61.347 72.381,62.537 72.381,64.003L72.381,68.428L76.84,68.428C78.317,68.428 79.516,69.618 79.516,71.084C79.516,72.549 78.317,73.739 76.84,73.739L72.381,73.739L72.381,78.165C72.381,79.63 71.182,80.82 69.705,80.82C68.229,80.82 67.03,79.63 67.03,78.165L67.03,73.739Z"/>
    </g>
</svg>
